<svg width="16" height="16" viewBox="0 0 16 16" fill="none" xmlns="http://www.w3.org/2000/svg">
<path d="M13.3334 1.33301H6.66671C5.93137 1.33301 5.33337 1.93101 5.33337 2.66634V5.33301H2.66671C1.93137 5.33301 1.33337 5.93101 1.33337 6.66634V13.333C1.33337 14.0683 1.93137 14.6663 2.66671 14.6663H9.33337C10.0687 14.6663 10.6667 14.0683 10.6667 13.333V10.6663H13.3334C14.0687 10.6663 14.6667 10.0683 14.6667 9.33301V2.66634C14.6667 1.93101 14.0687 1.33301 13.3334 1.33301ZM2.66671 13.333V6.66634H9.33337L9.33471 13.333H2.66671ZM13.3334 9.33301H10.6667V6.66634C10.6667 5.93101 10.0687 5.33301 9.33337 5.33301H6.66671V2.66634H13.3334V9.33301Z" fill="#C2C2C2"/>
</svg>
