<svg width="16" height="16" viewBox="0 0 16 16" fill="none" xmlns="http://www.w3.org/2000/svg">
<path d="M9.33337 5.33301H2.66671C1.93137 5.33301 1.33337 5.93101 1.33337 6.66634V13.333C1.33337 14.0683 1.93137 14.6663 2.66671 14.6663H9.33337C10.0687 14.6663 10.6667 14.0683 10.6667 13.333V6.66634C10.6667 5.93101 10.0687 5.33301 9.33337 5.33301Z" fill="#C2C2C2"/>
<path d="M13.3334 1.33301H6.66671C6.31309 1.33301 5.97395 1.47348 5.7239 1.72353C5.47385 1.97358 5.33337 2.31272 5.33337 2.66634V3.99967H10.6667C11.0203 3.99967 11.3595 4.14015 11.6095 4.3902C11.8596 4.64025 12 4.97939 12 5.33301V10.6663H13.3334C13.687 10.6663 14.0261 10.5259 14.2762 10.2758C14.5262 10.0258 14.6667 9.68663 14.6667 9.33301V2.66634C14.6667 2.31272 14.5262 1.97358 14.2762 1.72353C14.0261 1.47348 13.687 1.33301 13.3334 1.33301Z" fill="#C2C2C2"/>
</svg>
