<svg width="36" height="36" viewBox="0 0 36 36" fill="none" xmlns="http://www.w3.org/2000/svg">
<g clip-path="url(#clip0_283_530)">
<path d="M30.4762 6.73904C28.1812 5.70404 25.7212 4.93904 23.1487 4.50404C23.1258 4.49964 23.1021 4.50247 23.0809 4.51215C23.0596 4.52182 23.0419 4.53786 23.0302 4.55804C22.7152 5.11154 22.3642 5.83304 22.1182 6.40304C19.3898 5.99614 16.6161 5.99614 13.8877 6.40304C13.6148 5.77084 13.3058 5.15483 12.9622 4.55804C12.9502 4.53803 12.9325 4.52199 12.9115 4.51186C12.8904 4.50174 12.8669 4.49797 12.8437 4.50104C10.2727 4.93604 7.81272 5.70104 5.51622 6.73754C5.49754 6.7475 5.48118 6.7613 5.46822 6.77804C0.800221 13.6405 -0.479279 20.3335 0.149221 26.9425C0.15097 26.9587 0.155994 26.9744 0.163988 26.9886C0.171982 27.0028 0.182779 27.0152 0.195721 27.025C2.91986 29.0094 5.95891 30.5206 9.18522 31.495C9.20774 31.5016 9.23167 31.5013 9.25406 31.4944C9.27645 31.4875 9.29632 31.4741 9.31122 31.456C10.0044 30.527 10.6195 29.5421 11.1502 28.5115C11.1576 28.4974 11.1618 28.4819 11.1626 28.466C11.1635 28.4502 11.1609 28.4343 11.1551 28.4195C11.1492 28.4047 11.1403 28.3913 11.1288 28.3803C11.1174 28.3693 11.1037 28.3608 11.0887 28.3555C10.1192 27.9918 9.18027 27.5514 8.28072 27.0385C8.26455 27.0293 8.25092 27.0162 8.24106 27.0004C8.2312 26.9846 8.22541 26.9666 8.22422 26.948C8.22303 26.9294 8.22647 26.9108 8.23424 26.8939C8.24201 26.877 8.25386 26.8623 8.26872 26.851C8.45872 26.711 8.64472 26.5675 8.82672 26.4205C8.84328 26.4082 8.86275 26.4003 8.88325 26.3977C8.90375 26.395 8.92458 26.3978 8.94372 26.4055C14.8342 29.0515 21.2137 29.0515 27.0352 26.4055C27.0544 26.3973 27.0755 26.3942 27.0963 26.3965C27.1171 26.3989 27.1369 26.4067 27.1537 26.419C27.3337 26.567 27.5197 26.711 27.7117 26.851C27.7267 26.862 27.7388 26.8766 27.7468 26.8933C27.7548 26.9101 27.7585 26.9286 27.7576 26.9472C27.7567 26.9658 27.7513 26.9838 27.7417 26.9998C27.7321 27.0157 27.7187 27.029 27.7027 27.0385C26.8077 27.5535 25.8712 27.992 24.8932 28.354C24.8782 28.3595 24.8645 28.3681 24.853 28.3793C24.8416 28.3905 24.8326 28.404 24.8268 28.4189C24.821 28.4338 24.8184 28.4497 24.8193 28.4657C24.8201 28.4817 24.8244 28.4973 24.8317 28.5115C25.3717 29.542 25.9897 30.523 26.6692 31.4545C26.6838 31.4732 26.7035 31.4871 26.7259 31.4946C26.7483 31.502 26.7724 31.5027 26.7952 31.4965C30.0264 30.523 33.0701 29.0113 35.7982 27.025C35.8113 27.0155 35.8222 27.0034 35.8305 26.9894C35.8387 26.9755 35.8441 26.9601 35.8462 26.944C36.5962 19.303 34.5892 12.664 30.5227 6.78104C30.5128 6.76192 30.4963 6.74701 30.4762 6.73904ZM12.0307 22.918C10.2577 22.918 8.79522 21.3145 8.79522 19.348C8.79522 17.38 10.2292 15.778 12.0307 15.778C13.8457 15.778 15.2947 17.3935 15.2662 19.348C15.2662 21.316 13.8322 22.918 12.0307 22.918ZM23.9932 22.918C22.2187 22.918 20.7577 21.3145 20.7577 19.348C20.7577 17.38 22.1902 15.778 23.9932 15.778C25.8082 15.778 27.2572 17.3935 27.2287 19.348C27.2287 21.316 25.8097 22.918 23.9932 22.918Z" fill="black"/>
</g>
<defs>
<clipPath id="clip0_283_530">
<rect width="36" height="36" fill="white"/>
</clipPath>
</defs>
</svg>
